<?xml version="1.0" encoding="UTF-8" standalone="no"?>
<!-- Created with Inkscape (http://www.inkscape.org/) -->

<svg
   xmlns:dc="http://purl.org/dc/elements/1.1/"
   xmlns:cc="http://creativecommons.org/ns#"
   xmlns:rdf="http://www.w3.org/1999/02/22-rdf-syntax-ns#"
   xmlns:svg="http://www.w3.org/2000/svg"
   xmlns="http://www.w3.org/2000/svg"
   xmlns:sodipodi="http://sodipodi.sourceforge.net/DTD/sodipodi-0.dtd"
   xmlns:inkscape="http://www.inkscape.org/namespaces/inkscape"
   width="744.09448819"
   height="1052.3622047"
   id="svg2987"
   version="1.1"
   inkscape:version="0.48.3.1 r9886"
   sodipodi:docname="path-independence-1.svg"
   inkscape:export-filename="/home/iblech/mathezirkel-kurs/thema18-residuensatz/path-independence-1.png"
   inkscape:export-xdpi="90"
   inkscape:export-ydpi="90">
  <defs
     id="defs2989" />
  <sodipodi:namedview
     id="base"
     pagecolor="#ffffff"
     bordercolor="#666666"
     borderopacity="1.0"
     inkscape:pageopacity="0.0"
     inkscape:pageshadow="2"
     inkscape:zoom="0.98994949"
     inkscape:cx="375"
     inkscape:cy="859.91992"
     inkscape:document-units="px"
     inkscape:current-layer="layer1"
     showgrid="true"
     inkscape:snap-global="true"
     inkscape:window-width="1024"
     inkscape:window-height="600"
     inkscape:window-x="0"
     inkscape:window-y="0"
     inkscape:window-maximized="0">
    <inkscape:grid
       type="xygrid"
       id="grid3033" />
  </sodipodi:namedview>
  <metadata
     id="metadata2992">
    <rdf:RDF>
      <cc:Work
         rdf:about="">
        <dc:format>image/svg+xml</dc:format>
        <dc:type
           rdf:resource="http://purl.org/dc/dcmitype/StillImage" />
        <dc:title></dc:title>
      </cc:Work>
    </rdf:RDF>
  </metadata>
  <g
     inkscape:label="Layer 1"
     inkscape:groupmode="layer"
     id="layer1">
    <path
       style="fill:none;stroke:#0000ff;stroke-width:1px;stroke-linecap:butt;stroke-linejoin:miter;stroke-opacity:1"
       d="m 420.22346,132.11321 c 1.34687,0.33672 4.37733,-0.33671 4.04061,1.01016 -0.33672,1.34687 -5.0223,-1.99185 -4.04061,-1.01016 1.28218,1.28219 3.49589,1.08738 5.05076,2.02031 0.28873,0.17324 -0.23809,0.77206 0,1.01015 0.2381,0.2381 0.70898,-0.15058 1.01015,0 2.425,1.2125 -0.40469,0.80781 2.02031,2.02031 0.30117,0.15058 0.77206,-0.2381 1.01015,0 0.2381,0.23809 -0.15058,0.70898 0,1.01015 0.21296,0.42592 0.7972,0.58423 1.01015,1.01015 0.15059,0.30117 -0.23809,0.77206 0,1.01015 0.2381,0.2381 0.77206,-0.23809 1.01016,0 0.23809,0.2381 -0.2381,0.77206 0,1.01016 0.23809,0.23809 0.77205,-0.2381 1.01015,0 0.23809,0.23809 -0.2381,0.77205 0,1.01015 0.23809,0.23809 0.77206,-0.2381 1.01015,0 0.2381,0.23809 -0.23809,0.77206 0,1.01015 0.2381,0.2381 0.77206,-0.23809 1.01015,0 0.47619,0.47619 -0.47619,1.54412 0,2.02031 0.2381,0.23809 0.77206,-0.2381 1.01016,0 0.47619,0.47619 -0.30117,1.41796 0,2.0203 0.21296,0.42592 0.79719,0.58424 1.01015,1.01015 0.15058,0.30117 -0.2381,0.77206 0,1.01016 0.23809,0.23809 0.77206,-0.2381 1.01015,0 0.2381,0.23809 0,0.67343 0,1.01015 0,0.33672 0,0.67343 0,1.01015 0,2.69374 -0.33672,-0.33672 1.01015,1.01015 0.2764,0.2764 -0.27399,3.49262 0,4.04061 0.21296,0.42592 0.7972,0.58424 1.01016,1.01016 0.40406,0.80812 -0.40406,2.22233 0,3.03046 0.21296,0.42591 0.79719,0.58423 1.01015,1.01015 0.31864,0.63727 -0.31864,4.41349 0,5.05076 0.21296,0.42592 0.79719,0.58424 1.01015,1.01015 0.15371,0.30743 0,2.57553 0,3.03046 0,2.69374 0,5.38748 0,8.08122 0,3.70389 0,7.40779 0,11.11168 0,0.33672 0,0.67343 0,1.01015 0,0.33672 0.2381,0.77206 0,1.01015 -0.23809,0.2381 -0.77205,-0.23809 -1.01015,0 -0.2381,0.2381 0,0.67344 0,1.01016 0,0.7026 0.18265,4.68545 0,5.05076 -0.21296,0.42592 -0.79719,0.58423 -1.01015,1.01015 -0.31745,0.63491 0.31745,3.40571 0,4.04061 -0.21296,0.42592 -0.7972,0.58424 -1.01016,1.01015 -0.30116,0.60234 0.30117,1.41797 0,2.02031 -0.21295,0.42592 -0.79719,0.58423 -1.01015,1.01015 -0.40406,0.80812 0.40406,2.22234 0,3.03046 -0.21296,0.42592 -0.79719,0.58423 -1.01015,1.01015 -0.30117,0.60234 0.30117,1.41797 0,2.02031 -0.21296,0.42592 -0.79719,0.58423 -1.01015,1.01015 -0.15059,0.30117 0,0.67344 0,1.01015 -0.33672,0.33672 -0.7972,0.58424 -1.01016,1.01016 -0.30116,0.60233 0.47619,1.54411 0,2.0203 -0.23809,0.2381 -0.77205,-0.2381 -1.01015,0 -0.47619,0.47619 0.30117,1.41797 0,2.02031 -0.21296,0.42591 -0.79719,0.58423 -1.01015,1.01015 -0.15059,0.30117 0.15058,0.70898 0,1.01015 -0.21296,0.42592 -0.79719,0.58424 -1.01015,1.01015 -0.30117,0.60234 0.47619,1.54412 0,2.02031 -0.2381,0.23809 -0.77206,-0.2381 -1.01016,0 -0.47619,0.47619 0.30117,1.41796 0,2.0203 -0.21295,0.42592 -0.79719,0.58424 -1.01015,1.01016 -0.15058,0.30116 0.15059,0.70898 0,1.01015 -0.42592,0.85183 -1.59439,1.16847 -2.0203,2.0203 -0.15059,0.30117 0.15058,0.70899 0,1.01016 -0.21296,0.42591 -0.7972,0.58423 -1.01016,1.01015 -0.15058,0.30117 0.2381,0.77206 0,1.01015 -0.23809,0.2381 -0.77205,-0.23809 -1.01015,0 -0.23809,0.2381 0.15059,0.70898 0,1.01015 -0.42592,0.85184 -1.59439,1.16847 -2.0203,2.02031 -0.15059,0.30117 0.15058,0.70898 0,1.01015 -0.67422,1.34843 -1.3461,0.67188 -2.02031,2.02031 -0.15058,0.30117 0.2381,0.77205 0,1.01015 -0.23809,0.23809 -0.77206,-0.2381 -1.01015,0 -0.2381,0.23809 0.15058,0.70898 0,1.01015 -0.21296,0.42592 -0.79719,0.58424 -1.01015,1.01015 -0.15059,0.30117 0.23809,0.77206 0,1.01016 -0.2381,0.23809 -0.77206,-0.2381 -1.01016,0 -0.23809,0.23809 0.15059,0.70898 0,1.01015 -0.60609,1.21218 -2.42436,1.81827 -3.03045,3.03046 -0.15059,0.30117 0.15058,0.70898 0,1.01015 -0.21296,0.42592 -0.7972,0.58423 -1.01016,1.01015 -0.15058,0.30117 0.2381,0.77206 0,1.01015 -0.23809,0.2381 -0.70898,-0.15058 -1.01015,0 -0.26821,0.13411 -2.89635,2.76226 -3.03046,3.03046 -0.15058,0.30117 0.2381,0.77206 0,1.01015 -0.23809,0.2381 -0.70898,-0.15058 -1.01015,0 -0.19336,0.0967 -3.94393,3.84725 -4.04061,4.04061 -0.15058,0.30117 0.15059,0.70899 0,1.01016 -0.21296,0.42591 -0.67343,0.67343 -1.01015,1.01015 -0.33672,0.33672 -0.67344,0.67343 -1.01015,1.01015 -1.34687,1.34687 -2.69374,2.69374 -4.04061,4.04061 -0.33672,0.33672 -0.67344,0.67344 -1.01016,1.01015 -0.33671,0.33672 -0.79719,0.58424 -1.01015,1.01016 -0.15058,0.30117 0.2381,0.77205 0,1.01015 -0.23809,0.2381 -0.70898,-0.15058 -1.01015,0 -1.21219,0.60609 -1.81828,2.42437 -3.03046,3.03046 -0.30117,0.15058 -0.70898,-0.15059 -1.01015,0 -4.20402,2.102 1.07989,-0.0697 -1.01015,2.0203 -0.2381,0.2381 -0.70899,-0.15058 -1.01016,0 -0.42592,0.21296 -0.58423,0.7972 -1.01015,1.01016 -0.30117,0.15058 -0.70898,-0.15059 -1.01015,0 -0.85184,0.42591 -1.16847,1.59438 -2.02031,2.0203 -0.30117,0.15058 -0.70898,-0.15058 -1.01015,0 -0.42592,0.21296 -0.58424,0.79719 -1.01015,1.01015 -0.30117,0.15059 -0.70899,-0.15058 -1.01016,0 -0.42591,0.21296 -0.58423,0.7972 -1.01015,1.01016 -0.30117,0.15058 -0.77206,-0.2381 -1.01015,0 -0.2381,0.23809 0.23809,0.77205 0,1.01015 -0.2381,0.23809 -0.70898,-0.15059 -1.01015,0 -0.85184,0.42592 -1.16847,1.59439 -2.02031,2.0203 -0.60234,0.30117 -1.54411,-0.47619 -2.0203,0 -0.2381,0.2381 0.23809,0.77206 0,1.01016 -0.2381,0.23809 -0.70899,-0.15059 -1.01016,0 -0.42591,0.21295 -0.67343,0.67343 -1.01015,1.01015 -0.33672,0.33672 -0.67343,0.67343 -1.01015,1.01015 -0.33672,0.33672 -0.58424,0.79719 -1.01015,1.01015 -0.30117,0.15059 -0.70899,-0.15058 -1.01016,0 -2.425,1.2125 0.4047,0.80781 -2.0203,2.02031 -0.30117,0.15058 -0.70898,-0.15059 -1.01015,0 -4.20402,2.102 1.07989,-0.0697 -1.01016,2.0203 -0.23809,0.2381 -0.70898,-0.15058 -1.01015,0 -0.42592,0.21296 -0.58423,0.7972 -1.01015,1.01016 -0.30117,0.15058 -0.67344,0 -1.01015,0 -0.33672,0.33671 -0.58424,0.79719 -1.01016,1.01015 -0.60233,0.30117 -1.41796,-0.30117 -2.0203,0 -0.42592,0.21296 -0.58424,0.79719 -1.01015,1.01015 -0.30117,0.15059 -0.70899,-0.15058 -1.01016,0 -0.42591,0.21296 -0.58423,0.79719 -1.01015,1.01015 -0.30117,0.15059 -0.70898,-0.15058 -1.01015,0 -0.42592,0.21296 -0.58424,0.7972 -1.01015,1.01016 -0.30117,0.15058 -0.70899,-0.15059 -1.01016,0 -0.42591,0.21296 -0.58423,0.79719 -1.01015,1.01015 -0.30117,0.15058 -0.70898,-0.15059 -1.01015,0 -0.42592,0.21296 -0.58424,0.79719 -1.01015,1.01015 -0.30117,0.15059 -0.70899,-0.15058 -1.01016,0 -0.42591,0.21296 -0.58423,0.79719 -1.01015,1.01015 -0.30117,0.15059 -0.70898,-0.15058 -1.01015,0 -0.42592,0.21296 -0.58424,0.7972 -1.01015,1.01016 -0.30117,0.15058 -0.77206,-0.2381 -1.01016,0 -0.23809,0.23809 0.2381,0.77205 0,1.01015 -0.47619,0.47619 -1.41796,-0.30117 -2.0203,0 -0.42592,0.21296 -0.58424,0.79719 -1.01015,1.01015 -0.30117,0.15059 -0.70899,-0.15058 -1.01016,0 -0.42591,0.21296 -0.58423,0.7972 -1.01015,1.01015 -0.30117,0.15059 -0.67343,0 -1.01015,0 -0.33672,0.33672 -0.58424,0.7972 -1.01015,1.01016 -0.60234,0.30117 -1.41797,-0.30117 -2.02031,0 -0.42592,0.21296 -0.58423,0.79719 -1.01015,1.01015 -0.80812,0.40406 -2.22234,-0.40406 -3.03046,0 -0.42592,0.21296 -0.58423,0.79719 -1.01015,1.01015 -0.80812,0.40406 -2.22234,-0.40406 -3.03046,0 -0.42592,0.21296 -0.58424,0.7972 -1.01015,1.01015 -0.63728,0.31864 -4.41349,-0.31863 -5.05077,0 -0.42591,0.21296 -0.58423,0.7972 -1.01015,1.01016 -0.80812,0.40406 -2.22233,-0.40406 -3.03046,0 -0.42591,0.21296 -0.58423,0.79719 -1.01015,1.01015 -0.80812,0.40406 -2.22233,-0.40406 -3.03046,0 -0.42591,0.21296 -0.58423,0.79719 -1.01015,1.01015 -0.6349,0.31745 -3.40571,-0.31745 -4.04061,0 -0.42592,0.21296 -0.58423,0.7972 -1.01015,1.01015 -0.63728,0.31864 -4.41349,-0.31863 -5.05076,0 -0.42592,0.21296 -0.58424,0.7972 -1.01016,1.01016 -0.30117,0.15058 -0.67343,0 -1.01015,0 -0.33672,0 -0.67343,0 -1.01015,0 -2.02031,0 -4.04061,0 -6.06092,0 -0.33671,0 -0.67343,0 -1.01015,0 -0.33672,0 -0.70898,-0.15059 -1.01015,0 -0.42592,0.21296 -0.58424,0.79719 -1.01015,1.01015 -0.30117,0.15058 -0.67344,0 -1.01016,0 -2.0203,0 -4.04061,0 -6.06091,0 -0.33672,0 -0.77206,0.23809 -1.01015,0 -0.2381,-0.2381 0.23809,-0.77206 0,-1.01015 -0.2381,-0.2381 -0.67344,0 -1.01016,0 -0.33671,0 -0.67343,0 -1.01015,0 -2.69374,0 -5.38748,0 -8.08122,0 -0.33672,0 -0.77206,0.23809 -1.01015,0 -0.2381,-0.2381 0.23809,-0.77206 0,-1.01016 -0.24308,-0.24307 -3.79754,0.24308 -4.04061,0 -0.2381,-0.23809 0.23809,-0.77205 0,-1.01015 -0.20651,-0.20651 -2.62994,0.20026 -3.03046,0 -0.42592,-0.21296 -0.58424,-0.79719 -1.01015,-1.01015 -0.80813,-0.40406 -2.22234,0.40406 -3.03046,0 -0.42592,-0.21296 -0.58424,-0.79719 -1.01015,-1.01015 -0.54074,-0.27037 -1.47957,0.27036 -2.02031,0 -3.35025,-3.35026 0.95238,0.47619 -2.0203,-1.01016 -0.42592,-0.21295 -0.58424,-0.79719 -1.01016,-1.01015 -0.60233,-0.30117 -1.54411,0.47619 -2.0203,0 -0.2381,-0.23809 0.23809,-0.77206 0,-1.01015 -0.47619,-0.47619 -1.54412,0.47619 -2.02031,0 -0.23809,-0.2381 0.2381,-0.77206 0,-1.01015 -0.47619,-0.47619 -1.54411,0.47619 -2.0203,0 -0.2381,-0.2381 0.23809,-0.77206 0,-1.01016 -0.47619,-0.47619 -1.54412,0.47619 -2.02031,0 -0.23809,-0.23809 0.2381,-0.77205 0,-1.01015 -0.23809,-0.23809 -0.70898,0.15059 -1.01015,0 -0.42592,-0.21296 -0.58423,-0.79719 -1.01015,-1.01015 -0.30117,-0.15059 -0.77206,0.23809 -1.01015,0 -0.2381,-0.2381 0.23809,-0.77206 0,-1.01015 -0.2381,-0.2381 -0.70899,0.15058 -1.01016,0 -0.42591,-0.21296 -0.58423,-0.7972 -1.01015,-1.01016 -0.30117,-0.15058 -0.70898,0.15059 -1.01015,0 -0.42592,-0.21296 -0.58424,-0.79719 -1.01015,-1.01015 -0.30117,-0.15058 -0.70899,0.15059 -1.01016,0 -0.42591,-0.21296 -0.58423,-0.79719 -1.01015,-1.01015 -0.30117,-0.15059 -0.77206,0.23809 -1.01015,0 -0.2381,-0.2381 0.23809,-0.77206 0,-1.01015 -0.2381,-0.2381 -0.77206,0.23809 -1.01015,0 -0.2381,-0.2381 0.23809,-0.77206 0,-1.01016 -2.09005,-2.09004 0.0817,3.19386 -2.02031,-1.01015 -0.15058,-0.30117 0.2381,-0.77206 0,-1.01015 -0.23809,-0.2381 -0.77206,0.23809 -1.01015,0 -0.2381,-0.2381 0.23809,-0.77206 0,-1.01015 -0.2381,-0.2381 -0.77206,0.23809 -1.01015,0 -0.2381,-0.2381 0.15058,-0.70899 0,-1.01016 -0.21296,-0.42591 -0.7972,-0.58423 -1.01016,-1.01015 -0.15058,-0.30117 0.2381,-0.77206 0,-1.01015 -0.23809,-0.2381 -0.77205,0.23809 -1.01015,0 -0.23809,-0.2381 0.2381,-0.77206 0,-1.01015 -0.23809,-0.2381 -0.77206,0.23809 -1.01015,0 -0.2381,-0.2381 0.23809,-0.77206 0,-1.01016 -0.2381,-0.23809 -0.77206,0.2381 -1.01015,0 -0.4762,-0.47619 0.47619,-1.54411 0,-2.0203 -0.2381,-0.2381 -0.77206,0.23809 -1.01016,0 -0.23809,-0.2381 0.2381,-0.77206 0,-1.01015 -0.23809,-0.2381 -0.77205,0.23809 -1.01015,0 -0.47619,-0.47619 0.30117,-1.41797 0,-2.02031 -0.21296,-0.42592 -0.79719,-0.58423 -1.01015,-1.01015 -0.15059,-0.30117 0.23809,-0.77206 0,-1.01015 -0.2381,-0.2381 -0.77206,0.23809 -1.01015,0 -0.4762,-0.4762 0.30116,-1.41797 0,-2.02031 -0.21296,-0.42592 -0.7972,-0.58423 -1.01016,-1.01015 -0.30117,-0.60234 0.47619,-1.54412 0,-2.02031 -0.23809,-0.23809 -0.77205,0.2381 -1.01015,0 -0.0325,-0.0325 0,-2.78547 0,-3.03045 0,-0.33672 0,-0.67344 0,-1.01016 0,-0.33672 0.15058,-0.70898 0,-1.01015 -0.21296,-0.42592 -0.79719,-0.58423 -1.01015,-1.01015 -0.31745,-0.63491 0.31745,-3.40571 0,-4.04061 -0.21296,-0.42592 -0.7972,-0.58424 -1.01016,-1.01016 -0.34887,-0.69774 0.35459,-4.69617 0,-5.05076 -0.23809,-0.23809 -0.77205,0.2381 -1.01015,0 -0.2764,-0.2764 0.274,-3.49261 0,-4.04061 -0.21296,-0.42592 -0.79719,-0.58423 -1.01015,-1.01015 -0.13281,-0.26561 0,-3.51238 0,-4.04061 0,-2.69374 0,-5.38748 0,-8.08122 0,-0.47629 -0.0458,-5.00498 0,-5.05076 0.2381,-0.2381 0.77206,0.23809 1.01015,0 0.2381,-0.2381 0,-0.67344 0,-1.01016 0,-0.33671 0,-0.67343 0,-1.01015 0,-1.68359 0,-3.36717 0,-5.05076 0,-0.33672 0,-0.67344 0,-1.01015 0,-0.33672 -0.15058,-0.70899 0,-1.01016 0.21296,-0.42591 0.7972,-0.58423 1.01015,-1.01015 0.15059,-0.30117 0,-0.67343 0,-1.01015 0,-0.716 -0.13058,-5.79974 0,-6.06092 0.21296,-0.42592 0.7972,-0.58423 1.01016,-1.01015 0.31745,-0.6349 -0.31745,-3.40571 0,-4.04061 0.21296,-0.42592 0.79719,-0.58423 1.01015,-1.01015 0.274,-0.548 -0.2764,-3.76421 0,-4.04061 0.2381,-0.2381 0.77206,0.23809 1.01015,0 0.20651,-0.20651 -0.20026,-2.62994 0,-3.03046 0.21296,-0.42592 0.7972,-0.58424 1.01016,-1.01015 0.30116,-0.60234 -0.30117,-1.41797 0,-2.02031 0.21295,-0.42592 0.79719,-0.58423 1.01015,-1.01015 0.30117,-0.60234 -0.30117,-1.41797 0,-2.02031 0.21296,-0.42591 0.79719,-0.58423 1.01015,-1.01015 0.30117,-0.60234 -0.30117,-1.41796 0,-2.0203 0.21296,-0.42592 0.79719,-0.58424 1.01015,-1.01016 0.30117,-0.60233 -0.30117,-1.41796 0,-2.0203 0.21296,-0.42592 0.7972,-0.58424 1.01016,-1.01015 0.30116,-0.60234 -0.4762,-1.54412 0,-2.02031 0.23809,-0.23809 0.77205,0.2381 1.01015,0 0.47619,-0.47619 -0.47619,-1.54411 0,-2.0203 0.23809,-0.2381 0.77206,0.23809 1.01015,0 0.2381,-0.2381 -0.15058,-0.70899 0,-1.01016 0.21296,-0.42591 0.79719,-0.58423 1.01015,-1.01015 0.15059,-0.30117 0,-0.67343 0,-1.01015 0.33672,-0.33672 0.7972,-0.58424 1.01016,-1.01015 0.15058,-0.30117 -0.2381,-0.77206 0,-1.01016 0.23809,-0.23809 0.77205,0.2381 1.01015,0 0.23809,-0.23809 -0.15059,-0.70898 0,-1.01015 0.26975,-0.53951 2.49865,-2.49865 3.03046,-3.03046 0.5318,-0.53181 2.49095,-2.7607 3.03045,-3.03045 0.30117,-0.15059 0.77206,0.23809 1.01016,0 0.23809,-0.2381 -0.2381,-0.77206 0,-1.01016 0.23809,-0.23809 0.77205,0.2381 1.01015,0 0.23809,-0.23809 -0.2381,-0.77205 0,-1.01015 0.23809,-0.23809 0.77206,0.2381 1.01015,0 0.2381,-0.23809 -0.23809,-0.77206 0,-1.01015 0.2381,-0.2381 0.77206,0.23809 1.01015,0 0.2381,-0.2381 -0.15058,-0.70899 0,-1.01015 0.13411,-0.26821 2.76225,-2.89636 3.03046,-3.03046 0.30117,-0.15059 0.77206,0.23809 1.01015,0 0.2381,-0.2381 -0.23809,-0.77206 0,-1.01015 0.2381,-0.2381 0.77206,0.23809 1.01016,0 0.23809,-0.2381 -0.2381,-0.77206 0,-1.01016 0.23809,-0.23809 0.77205,0.2381 1.01015,0 0.23809,-0.23809 -0.2381,-0.77205 0,-1.01015 0.23809,-0.23809 0.70898,0.15058 1.01015,0 0.42592,-0.21296 0.58424,-0.79719 1.01015,-1.01015 0.30117,-0.15059 0.77206,0.23809 1.01016,0 0.23809,-0.2381 -0.2381,-0.77206 0,-1.01015 0.23809,-0.2381 0.70898,0.15058 1.01015,0 0.85183,-0.42592 1.16847,-1.59439 2.0203,-2.02031 0.30117,-0.15058 0.77206,0.2381 1.01016,0 0.23809,-0.2381 -0.2381,-0.77206 0,-1.01015 0.23809,-0.2381 0.77205,0.23809 1.01015,0 0.23809,-0.2381 -0.2381,-0.77206 0,-1.01015 0.23809,-0.2381 0.77206,0.23809 1.01015,0 0.2381,-0.2381 -0.23809,-0.77206 0,-1.01016 0.33638,-0.33638 1.68393,0.33638 2.02031,0 0.23809,-0.23809 -0.2381,-0.77205 0,-1.01015 0.23809,-0.2381 0.70898,0.15058 1.01015,0 0.42592,-0.21296 0.58423,-0.79719 1.01015,-1.01015 0.30117,-0.15059 0.70899,0.15058 1.01015,0 0.42592,-0.21296 0.58424,-0.7972 1.01016,-1.01016 0.30117,-0.15058 0.67343,0 1.01015,0 0.33672,-0.33671 0.58423,-0.79719 1.01015,-1.01015 0.60234,-0.30117 1.54412,0.47619 2.02031,0 0.23809,-0.23809 -0.2381,-0.77205 0,-1.01015 0.23809,-0.2381 0.70898,0.15058 1.01015,0 0.42592,-0.21296 0.58423,-0.79719 1.01015,-1.01015 0.30117,-0.15059 0.70899,0.15058 1.01015,0 0.42592,-0.21296 0.58424,-0.7972 1.01016,-1.01016 0.30117,-0.15058 0.77205,0.2381 1.01015,0 0.2381,-0.23809 -0.2381,-0.77205 0,-1.01015 0.33796,-0.33796 1.68235,0.33796 2.0203,0 0.2381,-0.23809 -0.23809,-0.77206 0,-1.01015 0.33796,-0.33796 1.68235,0.33796 2.02031,0 0.2381,-0.2381 -0.2381,-0.77206 0,-1.01015 0.47619,-0.47619 1.41797,0.30117 2.02031,0 0.42591,-0.21296 0.58423,-0.7972 1.01015,-1.01016 0.60234,-0.30116 1.54411,0.4762 2.0203,0 0.2381,-0.23809 -0.23809,-0.77205 0,-1.01015 0.2381,-0.23809 0.70899,0.15059 1.01016,0 0.42591,-0.21296 0.58423,-0.79719 1.01015,-1.01015 0.30117,-0.15059 0.70898,0.15058 1.01015,0 0.42592,-0.21296 0.58424,-0.79719 1.01015,-1.01015 0.60234,-0.30117 1.54412,0.47619 2.02031,0 0.23809,-0.2381 -0.2381,-0.77206 0,-1.01016 0.33796,-0.33795 1.68234,0.33796 2.0203,0 0.2381,-0.23809 -0.23809,-0.77205 0,-1.01015 0.33796,-0.33796 1.68235,0.33796 2.02031,0 0.23809,-0.23809 -0.2381,-0.77206 0,-1.01015 0.33796,-0.33796 1.68234,0.33796 2.0203,0 0.2381,-0.2381 -0.23809,-0.77206 0,-1.01015 0.33796,-0.33796 1.68235,0.33796 2.02031,0 0.23809,-0.2381 -0.2381,-0.77206 0,-1.01016 0.33796,-0.33795 1.68234,0.33796 2.0203,0 0.2381,-0.23809 -0.23809,-0.77205 0,-1.01015 0.2381,-0.23809 0.70899,0.15059 1.01016,0 0.42591,-0.21296 0.58423,-0.79719 1.01015,-1.01015 0.30117,-0.15059 0.70898,0.15058 1.01015,0 0.42592,-0.21296 0.58424,-0.79719 1.01015,-1.01015 0.30117,-0.15059 0.70899,0.15058 1.01016,0 3.35025,-3.35026 -0.95238,0.47619 2.0203,-1.01016 0.42592,-0.21295 0.58424,-0.79719 1.01015,-1.01015 0.30117,-0.15058 0.70899,0.15059 1.01016,0 0.85183,-0.42592 1.16847,-1.59439 2.0203,-2.0203 0.60234,-0.30117 1.41797,0.30117 2.02031,0 0.42591,-0.21296 0.58423,-0.7972 1.01015,-1.01016 0.30117,-0.15058 0.70898,0.15059 1.01015,0 0.42592,-0.21296 0.58424,-0.79719 1.01015,-1.01015 0.30117,-0.15058 0.70899,0.15059 1.01016,0 0.42591,-0.21296 0.58423,-0.79719 1.01015,-1.01015 0.30117,-0.15059 0.70898,0.15058 1.01015,0 0.42592,-0.21296 0.58424,-0.79719 1.01015,-1.01015 0.60234,-0.30117 1.54412,0.47619 2.02031,0 0.23809,-0.2381 -0.2381,-0.77206 0,-1.01016 0.47619,-0.47619 1.41797,0.30117 2.0203,0 0.42592,-0.21296 0.58424,-0.79719 1.01016,-1.01015 0.30117,-0.15058 0.77205,0.2381 1.01015,0 0.23809,-0.23809 -0.2381,-0.77206 0,-1.01015 0.2764,-0.2764 3.49261,0.274 4.04061,0 0.42592,-0.21296 0.58423,-0.7972 1.01015,-1.01015 0.80812,-0.40407 2.22234,0.40406 3.03046,0 0.42592,-0.21296 0.58423,-0.7972 1.01015,-1.01016 0.69775,-0.34887 4.69618,0.35459 5.05077,0 0.23809,-0.23809 -0.2381,-0.77205 0,-1.01015 0.23809,-0.23809 0.67343,0 1.01015,0 0.33672,0 0.67343,0 1.01015,0 0.716,0 5.79974,0.13059 6.06092,0 0.42591,-0.21296 0.58423,-0.79719 1.01015,-1.01015 0.26561,-0.13281 3.51238,0 4.04061,0 2.0203,0 4.04061,0 6.06091,0 0.45493,0 2.72304,-0.15371 3.03046,0 0.42592,0.21296 0.58424,0.79719 1.01015,1.01015 0.26561,0.13281 3.51238,0 4.04061,0 2.69374,0 5.38748,0 8.08122,0 2.69374,0 -0.33671,-0.33672 1.01016,1.01015 0.14245,0.14246 2.82324,0.10361 3.03045,0 0.42592,-0.21296 0.58424,-0.79719 1.01016,-1.01015 0.26561,-0.1328 3.51238,0 4.04061,0 3.03045,0 6.06091,0 9.09137,0 0.24499,0 2.99797,-0.0325 3.03046,0 0.23809,0.2381 -0.2381,0.77206 0,1.01015 0.23809,0.2381 0.67343,0 1.01015,0 0.33672,0 0.67344,0 1.01015,0 2.35703,0 4.71405,0 7.07107,0 0.33672,0 0.77206,-0.23809 1.01015,0 0.2381,0.2381 -0.23809,0.77206 0,1.01016 0.31279,0.31279 4.73798,-0.31279 5.05077,0 0.23809,0.23809 -0.2381,0.77205 0,1.01015 0.50507,0.50507 2.52538,-0.50508 3.03045,0 0.2381,0.23809 -0.15058,0.70898 0,1.01015 0.21296,0.42592 0.7972,0.58424 1.01016,1.01015 0.15058,0.30117 0,0.67344 0,1.01016 0,2.82343 -0.31264,0.88509 5.05076,3.03045 z"
       id="path3027"
       inkscape:connector-curvature="0" />
    <path
       style="fill:none;stroke:#000000;stroke-width:0.95916629px;stroke-linecap:butt;stroke-linejoin:miter;stroke-opacity:1"
       d="m 330,332.36218 0,-230"
       id="path3039"
       inkscape:connector-curvature="0" />
    <path
       style="fill:none;stroke:#000000;stroke-width:0.85839504px;stroke-linecap:butt;stroke-linejoin:miter;stroke-opacity:1"
       d="m 190,222.36218 280,0"
       id="path3041"
       inkscape:connector-curvature="0" />
    <path
       sodipodi:type="arc"
       style="fill:#ff0000;stroke:#ff0000"
       id="path3043"
       sodipodi:cx="375"
       sodipodi:cy="177.36218"
       sodipodi:rx="5"
       sodipodi:ry="5"
       d="m 380,177.36218 a 5,5 0 1 1 -10,0 5,5 0 1 1 10,0 z" />
    <path
       transform="translate(-70,5)"
       sodipodi:type="arc"
       style="fill:#ff0000;stroke:#ff0000"
       id="path3043-8"
       sodipodi:cx="375"
       sodipodi:cy="177.36218"
       sodipodi:rx="5"
       sodipodi:ry="5"
       d="m 380,177.36218 a 5,5 0 1 1 -10,0 5,5 0 1 1 10,0 z" />
    <path
       transform="translate(-75,70)"
       sodipodi:type="arc"
       style="fill:#ff0000;stroke:#ff0000"
       id="path3043-9"
       sodipodi:cx="375"
       sodipodi:cy="177.36218"
       sodipodi:rx="5"
       sodipodi:ry="5"
       d="m 380,177.36218 a 5,5 0 1 1 -10,0 5,5 0 1 1 10,0 z" />
    <path
       style="fill:none;stroke:#ff00ff;stroke-width:1px;stroke-linecap:butt;stroke-linejoin:miter;stroke-opacity:1"
       d="m 360,152.36218 c -2.8223,-1.02546 -5.53301,-2.43671 -8.46691,-3.07637 -0.46527,-0.10144 -0.58424,0.79719 -1.01016,1.01015 -0.30117,0.15058 -0.70898,-0.15059 -1.01015,0 -0.42592,0.21296 -0.58423,0.79719 -1.01015,1.01015 -0.30117,0.15059 -0.77206,-0.23809 -1.01015,0 -0.2381,0.2381 0.23809,0.77206 0,1.01015 -0.2381,0.2381 -0.77206,-0.23809 -1.01016,0 -0.23809,0.2381 0.2381,0.77206 0,1.01016 -0.33796,0.33796 -1.68234,-0.33796 -2.0203,0 -0.2381,0.23809 0.23809,0.77205 0,1.01015 -0.2381,0.2381 -0.70899,-0.15058 -1.01015,0 -0.42592,0.21296 -0.58424,0.79719 -1.01016,1.01015 -0.60234,0.30117 -1.54411,-0.47619 -2.0203,0 -0.2381,0.2381 0.23809,0.77206 0,1.01015 -0.24308,0.24308 -3.79754,-0.24307 -4.04061,0 -0.2381,0.2381 0.23809,0.77206 0,1.01016 -0.20651,0.20651 -2.62994,-0.20026 -3.03046,0 -0.42592,0.21296 -0.58423,0.79719 -1.01015,1.01015 -0.53579,0.26789 -1.48452,-0.26789 -2.02031,0 -0.42592,0.21296 -0.58423,0.79719 -1.01015,1.01015 -0.60234,0.30117 -1.54411,-0.47619 -2.02031,0 -0.23809,0.2381 0.2381,0.77206 0,1.01016 -0.31279,0.31279 -4.73797,-0.3128 -5.05076,0 -0.23809,0.23809 0.2381,0.77205 0,1.01015 -0.50507,0.50507 -2.52538,-0.50508 -3.03046,0 -0.23809,0.23809 0.2381,0.77205 0,1.01015 -0.47619,0.47619 -1.41796,-0.30117 -2.0203,0 -0.42592,0.21296 -0.58424,0.79719 -1.01015,1.01015 -0.53632,0.26816 -1.48399,-0.26816 -2.02031,0 -0.42592,0.21296 -0.58423,0.7972 -1.01015,1.01016 -0.60234,0.30116 -1.54412,-0.4762 -2.02031,0 -0.23809,0.23809 0.2381,0.77205 0,1.01015 -0.24307,0.24307 -3.79753,-0.24308 -4.04061,0 -0.23809,0.23809 0.2381,0.77206 0,1.01015 -0.24307,0.24307 -3.79753,-0.24307 -4.04061,0 -0.23809,0.2381 0.2381,0.77206 0,1.01015 -0.50507,0.50508 -2.52538,-0.50507 -3.03045,0 -0.2381,0.2381 0.23809,0.77206 0,1.01016 -0.33796,0.33795 -1.68235,-0.33796 -2.02031,0 -0.23809,0.23809 0.2381,0.77205 0,1.01015 -0.23809,0.23809 -0.77206,-0.2381 -1.01015,0 -0.2381,0.23809 0.23809,0.77206 0,1.01015 -0.2381,0.2381 -0.77206,-0.23809 -1.01015,0 -0.2381,0.2381 0.23809,0.77206 0,1.01015 -0.2381,0.2381 -0.77206,-0.23809 -1.01016,0 -0.23809,0.2381 0,0.67344 0,1.01016 -0.33671,0 -0.77205,-0.2381 -1.01015,0 -0.23809,0.23809 0.2381,0.77205 0,1.01015 -0.23809,0.23809 -0.77206,-0.2381 -1.01015,0 -0.47619,0.47619 0.47619,1.54411 0,2.0203 -0.2381,0.2381 -0.77206,-0.23809 -1.01015,0 -0.2381,0.2381 0.23809,0.77206 0,1.01016 -0.2381,0.23809 -0.77206,-0.2381 -1.01016,0 -0.23809,0.23809 0.2381,0.77205 0,1.01015 -0.23809,0.23809 -0.77205,-0.2381 -1.01015,0 -0.23809,0.23809 0.2381,0.77206 0,1.01015 -0.23809,0.2381 -0.77206,-0.23809 -1.01015,0 -0.24308,0.24307 0.24307,3.79754 0,4.04061 -0.2381,0.2381 -0.77206,-0.23809 -1.01015,0 -0.2381,0.2381 0,0.67344 0,1.01015 0,0.33672 0,0.67344 0,1.01016 0,0.52823 -0.13281,3.775 0,4.04061 1.24824,2.49649 1.01015,-0.34869 1.01015,2.0203 0,0.24499 -0.0325,2.99797 0,3.03046 0.23809,0.23809 0.77206,-0.2381 1.01015,0 0.2381,0.23809 -0.15058,0.70898 0,1.01015 0.21296,0.42592 0.79719,0.58424 1.01015,1.01015 0.30117,0.60234 -0.47619,1.54412 0,2.02031 0.2381,0.23809 0.77206,-0.2381 1.01016,0 0.47619,0.47619 -0.30117,1.41797 0,2.0203 0.21295,0.42592 0.79719,0.58424 1.01015,1.01016 0.30117,0.60234 -0.47619,1.54411 0,2.0203 0.23809,0.2381 0.77206,-0.23809 1.01015,0 0.2381,0.2381 -0.23809,0.77206 0,1.01015 0.2381,0.2381 0.77206,-0.23809 1.01015,0 0.2381,0.2381 -0.23809,0.77206 0,1.01016 0.2381,0.23809 0.77206,-0.2381 1.01016,0 0.47619,0.47619 -0.47619,1.54411 0,2.0203 0.23809,0.2381 0.77205,-0.23809 1.01015,0 0.47619,0.47619 -0.47619,1.54412 0,2.02031 0.23809,0.23809 0.77206,-0.2381 1.01015,0 0.2381,0.23809 0,0.67343 0,1.01015 0,0.33672 0,0.67343 0,1.01015 0,3.03046 0,6.06092 0,9.09138 0,0.33671 0,0.67343 0,1.01015 0,0.33672 0.2381,0.77206 0,1.01015 -0.23809,0.2381 -0.77206,-0.23809 -1.01015,0 -0.20651,0.20651 0.20026,2.62994 0,3.03046 -0.21296,0.42592 -0.7972,0.58423 -1.01015,1.01015 -0.30117,0.60234 0.47619,1.54412 0,2.02031 -0.2381,0.23809 -0.77206,-0.2381 -1.01016,0 -0.47619,0.47619 0.47619,1.54411 0,2.0203 -0.23809,0.2381 -0.77205,-0.23809 -1.01015,0 -0.47619,0.47619 0.47619,1.54412 0,2.02031 -0.23809,0.23809 -0.77206,-0.2381 -1.01015,0 -0.47619,0.47619 0.47619,1.54411 0,2.0203 -0.2381,0.2381 -0.77206,-0.23809 -1.01015,0 -0.50508,0.50508 0.50507,2.52538 0,3.03046 -0.2381,0.23809 -0.77206,-0.2381 -1.01016,0 -0.24307,0.24307 0.24308,3.79753 0,4.04061 -0.23809,0.23809 -0.77205,-0.2381 -1.01015,0 -0.2764,0.2764 0.274,3.49261 0,4.04061 -0.21296,0.42592 -0.79719,0.58423 -1.01015,1.01015 -0.13059,0.26118 0,5.34492 0,6.06092 0,0.33671 -0.2381,0.77205 0,1.01015 0.23809,0.23809 0.77206,-0.2381 1.01015,0 0.2381,0.23809 -0.23809,0.77206 0,1.01015 0.2381,0.2381 0.77206,-0.23809 1.01015,0 0.2381,0.2381 -0.15058,0.70899 0,1.01015 0.0967,0.19337 3.84725,3.94393 4.04061,4.04061 0.30117,0.15059 0.77206,-0.23809 1.01016,0 0.23809,0.2381 -0.2381,0.77206 0,1.01016 0.47619,0.47619 1.54411,-0.47619 2.0203,0 0.2381,0.23809 -0.23809,0.77205 0,1.01015 0.2381,0.23809 0.70898,-0.15059 1.01015,0 0.42592,0.21296 0.58424,0.79719 1.01016,1.01015 0.30117,0.15059 0.77205,-0.23809 1.01015,0 0.23809,0.2381 -0.2381,0.77206 0,1.01015 0.33796,0.33796 1.68234,-0.33795 2.0203,0 0.2381,0.2381 -0.23809,0.77206 0,1.01016 0.50508,0.50507 2.52538,-0.50508 3.03046,0 0.2381,0.23809 -0.23809,0.77205 0,1.01015 0.35458,0.35458 4.35302,-0.34887 5.05076,0 0.42592,0.21296 0.58424,0.79719 1.01016,1.01015 0.30117,0.15059 0.67343,0 1.01015,0 0.33672,0 0.70898,0.15059 1.01015,0 0.42592,-0.21296 0.58424,-0.79719 1.01015,-1.01015 0.60234,-0.30117 1.54412,0.47619 2.02031,0 0.23809,-0.2381 -0.2381,-0.77206 0,-1.01015 0.33638,-0.33638 1.68393,0.33637 2.0203,0 0.2381,-0.2381 -0.23809,-0.77206 0,-1.01016 0.33638,-0.33637 1.68393,0.33638 2.02031,0 0.23809,-0.23809 -0.2381,-0.77205 0,-1.01015 0.33638,-0.33638 1.68393,0.33638 2.0203,0 0.2381,-0.23809 -0.23809,-0.77206 0,-1.01015 0.2381,-0.2381 0.70899,0.15058 1.01016,0 0.42591,-0.21296 0.58423,-0.79719 1.01015,-1.01015 0.30117,-0.15059 0.77206,0.23809 1.01015,0 0.2381,-0.2381 -0.23809,-0.77206 0,-1.01016 0.2381,-0.23809 0.70899,0.15059 1.01015,0 0.42592,-0.21295 0.67344,-0.67343 1.01016,-1.01015 0.33671,-0.33672 0.79719,-0.58423 1.01015,-1.01015 0,-2.69374 -0.33672,0.33672 1.01015,-1.01015 0.2381,-0.2381 -0.23809,-0.77206 0,-1.01016 0.2381,-0.23809 0.77206,0.2381 1.01015,0 0.2381,-0.23809 -0.23809,-0.77205 0,-1.01015 0.2381,-0.23809 0.77206,0.2381 1.01016,0 0.23809,-0.23809 -0.2381,-0.77206 0,-1.01015 0.23809,-0.2381 0.77205,0.23809 1.01015,0 0.2381,-0.2381 -0.15058,-0.70898 0,-1.01015 0.21296,-0.42592 0.79719,-0.58424 1.01015,-1.01016 0.30117,-0.60233 -0.47619,-1.54411 0,-2.0203 0.2381,-0.2381 0.77206,0.23809 1.01016,0 0.47619,-0.47619 -0.4762,-1.54412 0,-2.02031 0.23809,-0.23809 0.77205,0.2381 1.01015,0 0.47619,-0.47619 -0.30117,-1.41796 0,-2.0203 0.21296,-0.42592 0.79719,-0.58424 1.01015,-1.01015 0.31745,-0.63491 -0.31745,-3.40571 0,-4.04061 0.21296,-0.42592 0.79719,-0.58424 1.01015,-1.01016 0.15059,-0.30117 0,-0.67343 0,-1.01015 0,-0.33672 0,-0.67343 0,-1.01015 0,-2.02031 0,-4.04061 0,-6.06092 0,-0.33671 0,-0.67343 0,-1.01015 0,-0.33672 0.2381,-0.77206 0,-1.01015 -0.23809,-0.2381 -0.77205,0.23809 -1.01015,0 -0.2381,-0.2381 0,-0.67344 0,-1.01015 0,-0.716 -0.13059,-5.79974 0,-6.06092 0.21296,-0.42592 0.79719,-0.58423 1.01015,-1.01015 0.40406,-0.80812 -0.40406,-2.22234 0,-3.03046 0.21296,-0.42592 0.7972,-0.58423 1.01016,-1.01015 0.15058,-0.30117 -0.15059,-0.70899 0,-1.01015 0.21295,-0.42592 0.79719,-0.58424 1.01015,-1.01016 0.30117,-0.60234 -0.47619,-1.54411 0,-2.0203 0.23809,-0.2381 0.77206,0.23809 1.01015,0 0.47619,-0.47619 -0.47619,-1.54412 0,-2.02031 0.2381,-0.23809 0.77206,0.2381 1.01015,0 0.2381,-0.23809 0,-0.67343 0,-1.01015 0.33672,0 0.77206,0.2381 1.01016,0 0.23809,-0.2381 -0.2381,-0.77206 0,-1.01015 0.23809,-0.2381 0.77205,0.23809 1.01015,0 0.23809,-0.2381 -0.2381,-0.77206 0,-1.01016 0.23809,-0.23809 0.77206,0.2381 1.01015,0 2.09004,-2.09004 -3.19386,0.0817 1.01015,-2.0203 0.30117,-0.15059 0.77206,0.23809 1.01016,0 0.23809,-0.2381 -0.2381,-0.77206 0,-1.01015 0.33763,-0.33763 1.68267,0.33763 2.0203,0 0.47619,-0.47619 -0.47619,-1.54412 0,-2.02031 0.2381,-0.23809 0.77206,0.2381 1.01015,0 0.31279,-0.31279 -0.31279,-4.73797 0,-5.05076 0.2381,-0.2381 0.77206,0.23809 1.01016,0 0.23809,-0.2381 0,-0.67344 0,-1.01015 0,-0.47629 0.0458,-5.00498 0,-5.05077 -0.2381,-0.23809 -0.77206,0.2381 -1.01016,0 -0.0406,-0.0406 0,-3.66964 0,-4.04061 0,-0.33671 0,-0.67343 0,-1.01015 0,-0.33672 -0.23809,-0.77206 0,-1.01015 0.2381,-0.2381 0.77206,0.23809 1.01016,0 0.50507,-0.50508 -0.50508,-2.52538 0,-3.03046 0.23809,-0.23809 0.77205,0.2381 1.01015,0 0.50507,-0.50508 -0.50508,-2.52538 0,-3.03046 0.23809,-0.23809 0.77206,0.2381 1.01015,0 0.47619,-0.47619 -0.30117,-1.41796 0,-2.0203 0.21296,-0.42592 0.79719,-0.58424 1.01015,-1.01015 0.34888,-0.69775 -0.35458,-4.69618 0,-5.05077 0.2381,-0.23809 0.77206,0.2381 1.01016,0 0.31279,-0.31279 -0.31279,-4.73797 0,-5.05076 0.23809,-0.23809 0.77205,0.2381 1.01015,0 0.50507,-0.50508 -0.50508,-2.52538 0,-3.03046 0.23809,-0.23809 0.77206,0.2381 1.01015,0 0.50508,-0.50507 -0.50508,-2.52538 0,-3.03045 0.2381,-0.2381 0.77206,0.23809 1.01015,0 0.50508,-0.50508 -0.50507,-2.52539 0,-3.03046 0.2381,-0.2381 1.01016,-0.33672 1.01016,0 0,0.33671 -1.03603,0.33572 -1.01016,0 0.13308,-1.72683 2.28693,-3.51971 1.39585,-5.00485 -0.75915,-1.26524 -2.99107,0.29652 -4.4263,-0.0459 -0.32753,-0.0781 0.15058,-0.70898 0,-1.01015 -1.29767,-2.59533 -3.70864,0.21163 -5.5737,1.05607"
       id="path3107"
       inkscape:connector-curvature="0" />
  </g>
</svg>
